# xmcd
#
# Track frame offsets:
# 150
# 16964
# 27600
# 47298
# 64330
# 76905
# 99712
# 112251
# 133564
# 148046
# 167899
# 187649
# 207755
# 226689
# 252353
# 266878
# 286865
# 303012
#
# Disc length: 4239 seconds
#
#
# Revision: 0
# Processed by: cddbd v1.5.1PL0 Copyright (c) Steve Scherf et al.
# Submitted via: FreeRIP 2.941 
#
DISCID=f5108d12
DTITLE=Various Artist - American Connection
DYEAR=1900
DGENRE=
TTITLE0=Dan Bern - Not For Sale
TTITLE1=Ron Sexsmith - For The Driver
TTITLE2=Eliza Gilkyson - Hiway 9
TTITLE3=Drunk Stuntmen - Out Of Bed
TTITLE4=Jay Farrar - Hard Is The Fall
TTITLE5=Beth Hart - Hiding Under Water
TTITLE6=Hackensaw - Boys Sweet Petunia
TTITLE7=Chris Knight - Broken Plow
TTITLE8=Ane Brun - Humming One Of Your Songs
TTITLE9=Eugene Ruffolo - One More Mystery
TTITLE10=Boris McCutcheon - Gift Horse
TTITLE11=Kathleen Edwards - The Lone Wolf
TTITLE12=Josh Ritter - Kathleen
TTITLE13=Remmelt, Muus and Femke - If We Should Fall
TTITLE14=Jeff Talmadge - Photograph
TTITLE15=Freedy Johnston - The Mortician's Daughter
TTITLE16=Stephen Fearing - Song On The Radio
TTITLE17=Townes Van Zandt - Waiting Around To Die
EXTD=
EXTT0=
EXTT1=
EXTT2=
EXTT3=
EXTT4=
EXTT5=
EXTT6=
EXTT7=
EXTT8=
EXTT9=
EXTT10=
EXTT11=
EXTT12=
EXTT13=
EXTT14=
EXTT15=
EXTT16=
EXTT17=
PLAYORDER=
